<svg width="132" height="132" viewBox="0 0 132 132" fill="none" xmlns="http://www.w3.org/2000/svg">
<circle cx="66" cy="66" r="66" fill="url(#paint0_linear_318_27)"/>
<path d="M53.3374 85.1389C52.5475 89.1595 49.0038 92.1925 44.7517 92.1925H37.7517C36.7852 92.1925 36.0017 91.409 36.0017 90.4425V83.4425C36.0017 79.1904 39.0347 75.6467 43.0554 74.8568L43.0967 73.657C43.1667 71.6283 43.3756 69.6372 43.7141 67.6925H30.7517C29.5137 67.6925 28.6671 66.4421 29.1269 65.2926L36.1269 47.7926C36.3927 47.1282 37.0361 46.6925 37.7517 46.6925H53.5017C53.5906 46.6925 53.6779 46.6991 53.7632 46.7119C62.0036 37.3176 74.2382 31.5619 87.7013 32.0261C89.8386 32.0998 91.9675 32.3323 94.0704 32.7218C94.783 32.8537 95.3405 33.4113 95.4725 34.1239C98.3444 49.6322 92.5346 64.7379 81.4833 74.4374C81.4954 74.5207 81.5017 74.6058 81.5017 74.6925V90.4425C81.5017 91.1581 81.0661 91.8016 80.4017 92.0673L62.9017 99.0673C61.7521 99.5271 60.5017 98.6806 60.5017 97.4425V84.4748C58.5306 84.8204 56.5376 85.0285 54.5372 85.0975L53.3374 85.1389ZM49.958 84.1236L44.0706 78.2363C41.4929 78.5702 39.5017 80.7738 39.5017 83.4425V88.6925H44.7517C47.4204 88.6925 49.624 86.7013 49.958 84.1236ZM64.0017 83.712V94.8577L78.0017 89.2577V77.1888C73.8643 80.1248 69.1515 82.3664 64.0017 83.712ZM44.4745 64.1925C45.8088 59.0877 48.0507 54.3625 51.0123 50.1925H38.9365L33.3365 64.1925H44.4745ZM52.4514 81.6673L54.4166 81.5996C56.3806 81.5318 58.3368 81.3182 60.269 80.9604C81.3974 77.0477 95.4867 57.0524 92.2344 35.9602C90.6934 35.7235 89.1395 35.5778 87.5806 35.524C65.6992 34.7695 47.3492 51.8962 46.5947 73.7776L46.5269 75.7428L52.4514 81.6673ZM71.0017 67.6925C65.2027 67.6925 60.5017 62.9915 60.5017 57.1925C60.5017 51.3935 65.2027 46.6925 71.0017 46.6925C76.8007 46.6925 81.5017 51.3935 81.5017 57.1925C81.5017 62.9915 76.8007 67.6925 71.0017 67.6925ZM71.0017 64.1925C74.8677 64.1925 78.0017 61.0585 78.0017 57.1925C78.0017 53.3265 74.8677 50.1925 71.0017 50.1925C67.1357 50.1925 64.0017 53.3265 64.0017 57.1925C64.0017 61.0585 67.1357 64.1925 71.0017 64.1925Z" fill="black"/>
<defs>
<linearGradient id="paint0_linear_318_27" x1="-2.49446" y1="-0.261013" x2="151.556" y2="10.2242" gradientUnits="userSpaceOnUse">
<stop stop-color="#FED74A"/>
<stop offset="1" stop-color="#FF9D4A"/>
</linearGradient>
</defs>
</svg>
