<svg width="132" height="132" viewBox="0 0 132 132" fill="none" xmlns="http://www.w3.org/2000/svg">
<circle cx="66" cy="66" r="66" fill="url(#paint0_linear_306_56)"/>
<path d="M97.7812 35H35.2188C31.2316 35 28 38.2316 28 42.2188V80.7188C28 84.7059 31.2316 87.9375 35.2188 87.9375H56.875V95.1562H53.2656C52.6015 95.1562 52.0625 95.6953 52.0625 96.3594C52.0625 97.0235 52.6015 97.5625 53.2656 97.5625H79.7344C80.3985 97.5625 80.9375 97.0235 80.9375 96.3594C80.9375 95.6953 80.3985 95.1562 79.7344 95.1562H76.125V87.9375H97.7812C101.768 87.9375 105 84.7059 105 80.7188V42.2188C105 38.2316 101.768 35 97.7812 35ZM73.7188 95.1562H59.2812V87.9375H73.7188V95.1562ZM102.594 80.7188C102.594 83.3777 100.44 85.5312 97.7812 85.5312H35.2188C32.5598 85.5312 30.4062 83.3777 30.4062 80.7188V42.2188C30.4062 39.5598 32.5598 37.4062 35.2188 37.4062H97.7812C100.44 37.4062 102.594 39.5598 102.594 42.2188V80.7188ZM90.0933 47.1034C88.2116 46.7329 86.5441 47.8253 85.9714 49.4375H71.3125V47.0312H61.6875V49.4375H47.0286C46.4559 47.8253 44.786 46.7329 42.9067 47.1034C41.5279 47.3753 40.4042 48.4798 40.1155 49.8562C39.6222 52.1927 41.3908 54.25 43.6406 54.25C45.2095 54.25 46.5329 53.2418 47.0286 51.8438H61.6875V52.3827C51.1289 54.5412 43.0511 63.5911 42.4712 74.6309C42.4351 75.3215 42.9837 75.9062 43.6767 75.9062C44.3096 75.9062 44.8413 75.4154 44.8726 74.7825C45.3755 65.0011 52.4138 56.9522 61.6875 54.8371V56.6562H71.3125V54.8347C80.5862 56.9522 87.6245 65.0011 88.1274 74.7801C88.1611 75.4154 88.6904 75.9062 89.3233 75.9062C90.0163 75.9062 90.5649 75.3215 90.5288 74.6309C89.9489 63.5911 81.8711 54.5412 71.3125 52.3827V51.8438H85.9714C86.4695 53.2418 87.7905 54.25 89.3594 54.25C91.6092 54.25 93.3778 52.1927 92.8869 49.8562C92.5958 48.4798 91.4721 47.3753 90.0933 47.1034ZM43.6406 51.8438C42.9765 51.8438 42.4375 51.3047 42.4375 50.6406C42.4375 49.9765 42.9765 49.4375 43.6406 49.4375C44.3047 49.4375 44.8438 49.9765 44.8438 50.6406C44.8438 51.3047 44.3047 51.8438 43.6406 51.8438ZM68.9062 54.25H64.0938V49.4375H68.9062V54.25ZM89.3594 51.8438C88.6953 51.8438 88.1562 51.3047 88.1562 50.6406C88.1562 49.9765 88.6953 49.4375 89.3594 49.4375C90.0235 49.4375 90.5625 49.9765 90.5625 50.6406C90.5625 51.3047 90.0235 51.8438 89.3594 51.8438Z" fill="#0B1719"/>
<defs>
<linearGradient id="paint0_linear_306_56" x1="-2.49446" y1="-0.261013" x2="151.556" y2="10.2242" gradientUnits="userSpaceOnUse">
<stop stop-color="#FED74A"/>
<stop offset="1" stop-color="#FF9D4A"/>
</linearGradient>
</defs>
</svg>
