<svg width="132" height="132" viewBox="0 0 132 132" fill="none" xmlns="http://www.w3.org/2000/svg">
<circle cx="66" cy="66" r="66" fill="url(#paint0_linear_316_9)"/>
<path d="M48.2559 55.375C51.5634 57.0288 54.3984 59.5262 56.4571 62.6312C57.6384 64.3862 57.6384 66.6475 56.4571 68.4025C54.3984 71.4737 51.5634 73.9712 48.2559 75.625" stroke="black" stroke-width="2" stroke-linecap="round" stroke-linejoin="round"/>
<path d="M68.875 75.625H82.375" stroke="black" stroke-width="2" stroke-linecap="round" stroke-linejoin="round"/>
<path d="M55.375 99.25H75.625C92.5 99.25 99.25 92.5 99.25 75.625V55.375C99.25 38.5 92.5 31.75 75.625 31.75H55.375C38.5 31.75 31.75 38.5 31.75 55.375V75.625C31.75 92.5 38.5 99.25 55.375 99.25Z" stroke="black" stroke-width="3" stroke-linecap="round" stroke-linejoin="round"/>
<defs>
<linearGradient id="paint0_linear_316_9" x1="-2.49446" y1="-0.261013" x2="151.556" y2="10.2242" gradientUnits="userSpaceOnUse">
<stop stop-color="#FED74A"/>
<stop offset="1" stop-color="#FF9D4A"/>
</linearGradient>
</defs>
</svg>
