<svg width="132" height="132" viewBox="0 0 132 132" fill="none" xmlns="http://www.w3.org/2000/svg">
<circle cx="66" cy="66" r="66" fill="url(#paint0_linear_306_52)"/>
<path d="M65.5165 37V65.467M65.5165 37C57.9636 36.9956 50.7177 39.9913 45.3708 45.3289C40.0239 50.6666 37.0131 57.9096 37 65.467M65.5165 37H93.967C93.9495 44.5445 90.9465 51.7751 85.6148 57.1099C80.283 62.4447 73.0567 65.4495 65.5165 65.467M65.5165 65.467H37M65.5165 65.467V94C61.7711 94.0022 58.0619 93.2656 54.6012 91.8325C51.1404 90.3993 47.9959 88.2977 45.3475 85.6477C42.699 82.9977 40.5986 79.8514 39.1663 76.3886C37.734 72.9259 36.9978 69.2146 37 65.467M94 65.467V94H65.5C65.5 86.4411 68.4976 79.1912 73.8348 73.8416C79.1719 68.492 86.4125 65.4801 93.967 65.467H94Z" stroke="black" stroke-width="3" stroke-linecap="round" stroke-linejoin="round"/>
<defs>
<linearGradient id="paint0_linear_306_52" x1="-2.49446" y1="-0.261013" x2="151.556" y2="10.2242" gradientUnits="userSpaceOnUse">
<stop stop-color="#FED74A"/>
<stop offset="1" stop-color="#FF9D4A"/>
</linearGradient>
</defs>
</svg>
