<svg width="113" height="57" viewBox="0 0 113 57" fill="none" xmlns="http://www.w3.org/2000/svg">
<rect width="112.5" height="57" rx="28.5" fill="url(#paint0_linear_269_27)"/>
<rect x="4" y="4" width="48" height="48" rx="24" fill="black"/>
<path fill-rule="evenodd" clip-rule="evenodd" d="M29.5455 15.2955C29.5455 14.58 28.9655 14 28.25 14C27.5345 14 26.9545 14.58 26.9545 15.2955V17.8864C26.9545 18.6018 27.5345 19.1818 28.25 19.1818C28.9655 19.1818 29.5455 18.6018 29.5455 17.8864V15.2955ZM22.8946 16.3833C22.5369 15.7637 21.7446 15.5514 21.125 15.9091C20.5054 16.2668 20.2931 17.0591 20.6508 17.6787L21.9454 19.9211C22.3032 20.5407 23.0955 20.7529 23.7151 20.3952C24.3347 20.0375 24.547 19.2452 24.1892 18.6256L22.8946 16.3833ZM35.8491 17.6788C36.2069 17.0592 35.9946 16.2669 35.375 15.9092C34.7554 15.5514 33.9631 15.7637 33.6054 16.3833L32.3109 18.6256C31.9531 19.2452 32.1654 20.0375 32.785 20.3952C33.4046 20.753 34.1969 20.5407 34.5546 19.9211L35.8491 17.6788ZM40.1166 22.8946C40.7362 22.5369 40.9486 21.7446 40.5909 21.125C40.2331 20.5054 39.4408 20.2931 38.8212 20.6508L36.579 21.9454C35.9594 22.3031 35.7471 23.0954 36.1047 23.715C36.4625 24.3346 37.2548 24.5469 37.8745 24.1892L40.1166 22.8946ZM17.6787 20.6508C17.0591 20.2931 16.2668 20.5054 15.9091 21.125C15.5514 21.7446 15.7637 22.5369 16.3833 22.8946L18.6256 24.1892C19.2452 24.547 20.0375 24.3347 20.3952 23.7151C20.7529 23.0955 20.5407 22.3032 19.9211 21.9454L17.6787 20.6508ZM15.2955 26.9545C14.58 26.9545 14 27.5345 14 28.25C14 28.9655 14.58 29.5455 15.2955 29.5455H17.8864C18.6018 29.5455 19.1818 28.9655 19.1818 28.25C19.1818 27.5345 18.6018 26.9545 17.8864 26.9545H15.2955ZM38.6136 26.9545C37.8982 26.9545 37.3182 27.5345 37.3182 28.25C37.3182 28.9655 37.8982 29.5455 38.6136 29.5455H41.2045C41.92 29.5455 42.5 28.9655 42.5 28.25C42.5 27.5345 41.92 26.9545 41.2045 26.9545H38.6136ZM19.9211 34.5546C20.5407 34.1968 20.7529 33.4045 20.3952 32.785C20.0375 32.1654 19.2452 31.9531 18.6256 32.3107L16.3833 33.6054C15.7637 33.9631 15.5514 34.7554 15.9091 35.375C16.2668 35.9946 17.0591 36.2069 17.6787 35.8491L19.9211 34.5546ZM37.8743 32.3109C37.2548 31.9531 36.4625 32.1654 36.1047 32.785C35.7471 33.4046 35.9594 34.1969 36.5789 34.5546L38.8212 35.8491C39.4408 36.2069 40.2331 35.9946 40.5909 35.375C40.9486 34.7554 40.7362 33.9631 40.1166 33.6054L37.8743 32.3109ZM34.5546 36.5789C34.1969 35.9594 33.4046 35.7471 32.785 36.1047C32.1654 36.4625 31.9531 37.2548 32.3109 37.8743L33.6054 40.1166C33.9631 40.7362 34.7554 40.9486 35.375 40.5909C35.9946 40.2331 36.2069 39.4408 35.8491 38.8212L34.5546 36.5789ZM24.1892 37.8745C24.547 37.2548 24.3347 36.4625 23.7151 36.1047C23.0955 35.7471 22.3032 35.9594 21.9454 36.579L20.6508 38.8213C20.2931 39.4409 20.5054 40.2332 21.125 40.5909C21.7446 40.9486 22.5369 40.7364 22.8946 40.1168L24.1892 37.8745ZM29.5455 38.6136C29.5455 37.8982 28.9655 37.3182 28.25 37.3182C27.5345 37.3182 26.9545 37.8982 26.9545 38.6136V41.2045C26.9545 41.92 27.5345 42.5 28.25 42.5C28.9655 42.5 29.5455 41.92 29.5455 41.2045V38.6136ZM23.0682 28.25C23.0682 25.3882 25.3882 23.0682 28.25 23.0682C31.1118 23.0682 33.4318 25.3882 33.4318 28.25C33.4318 31.1118 31.1118 33.4318 28.25 33.4318C25.3882 33.4318 23.0682 31.1118 23.0682 28.25ZM28.25 20.4773C23.9572 20.4773 20.4773 23.9572 20.4773 28.25C20.4773 32.5427 23.9572 36.0227 28.25 36.0227C32.5427 36.0227 36.0227 32.5427 36.0227 28.25C36.0227 23.9572 32.5427 20.4773 28.25 20.4773Z" fill="url(#paint1_linear_269_27)"/>
<rect x="61.5" y="30" width="3" height="17.25" rx="1.5" fill="#111111"/>
<rect x="68.25" y="26.25" width="2.25" height="21" rx="1.125" fill="#111111"/>
<rect x="74.25" y="19.5" width="2.25" height="27.75" rx="1.125" fill="#111111"/>
<rect x="80.25" y="13.5" width="2.25" height="33.75" rx="1.125" fill="#111111"/>
<rect x="86" y="8" width="2" height="39" rx="1" fill="#111111"/>
<defs>
<linearGradient id="paint0_linear_269_27" x1="-2.12596" y1="-0.11271" x2="127.437" y2="17.2922" gradientUnits="userSpaceOnUse">
<stop stop-color="#FED74A"/>
<stop offset="1" stop-color="#FF9D4A"/>
</linearGradient>
<linearGradient id="paint1_linear_269_27" x1="13.4614" y1="13.9436" x2="46.7222" y2="16.2075" gradientUnits="userSpaceOnUse">
<stop stop-color="#FED74A"/>
<stop offset="1" stop-color="#FF9D4A"/>
</linearGradient>
</defs>
</svg>
