<svg width="132" height="132" viewBox="0 0 132 132" fill="none" xmlns="http://www.w3.org/2000/svg">
<circle cx="66" cy="66" r="66" fill="url(#paint0_linear_318_36)"/>
<path d="M70.4766 59.1872C71.4232 56.1578 71.5297 53.0812 70.7961 49.9572C70.0624 46.8332 68.5596 44.1115 66.2876 41.7922C64.5362 39.9935 62.4772 38.6563 60.1106 37.7807C57.7439 36.905 55.3062 36.5618 52.7976 36.7512C52.0402 36.7985 51.4367 37.0825 50.9871 37.6032C50.5374 38.1238 50.3007 38.7273 50.2771 39.4137C50.2534 40.1 50.5019 40.7272 51.0226 41.2952C51.8746 42.0998 53.3656 43.3423 55.4956 45.0227C57.6256 46.703 59.0929 47.9455 59.8976 48.7502C60.7022 49.5548 61.0927 50.4897 61.0691 51.5547C61.0454 52.6197 60.6549 53.5308 59.8976 54.2882L54.2886 59.8972C53.5312 60.6545 52.6082 61.045 51.5196 61.0687C50.4309 61.0923 49.5316 60.7255 48.8216 59.9682L41.2956 51.0932C40.7276 50.5725 40.1004 50.3122 39.4141 50.3122C38.7277 50.3122 38.1242 50.537 37.6036 50.9867C37.0829 51.4363 36.7989 52.0398 36.7516 52.7972C36.5149 55.6372 36.9764 58.3707 38.1361 60.9977C39.2957 63.6247 40.9997 65.8257 43.2481 67.6007C45.4964 69.3757 48.0406 70.5235 50.8806 71.0442C53.7206 71.5648 56.4896 71.3992 59.1876 70.5472C59.6136 70.4052 60.0277 70.3933 60.4301 70.5117C60.8324 70.63 61.1519 70.8548 61.3886 71.1862L78.5706 93.2672C79.8959 94.6872 81.4697 95.6575 83.2921 96.1782C85.1144 96.6988 86.9486 96.7225 88.7946 96.2492C90.6406 95.7758 92.2263 94.8647 93.5516 93.5157C94.8769 92.1667 95.7763 90.581 96.2496 88.7587C96.7229 86.9363 96.6993 85.1022 96.1786 83.2562C95.6579 81.4102 94.6876 79.8482 93.2676 78.5702L71.1866 61.3882C70.8552 61.1515 70.6304 60.832 70.5121 60.4297C70.3937 60.0273 70.3819 59.6132 70.4766 59.1872ZM88.3686 88.3682C87.8953 88.8888 87.3154 89.2083 86.6291 89.3267C85.9428 89.445 85.2683 89.374 84.6056 89.1137C83.9429 88.8533 83.4222 88.4392 83.0436 87.8712C82.6649 87.3032 82.4756 86.6642 82.4756 85.9542C82.4756 85.2442 82.6649 84.5933 83.0436 84.0017C83.4222 83.41 83.9429 82.984 84.6056 82.7237C85.2683 82.4633 85.9428 82.4042 86.6291 82.5462C87.3154 82.6882 87.8953 82.9958 88.3686 83.4692C89.0313 84.1318 89.3626 84.9483 89.3626 85.9187C89.3626 86.889 89.0313 87.7055 88.3686 88.3682Z" fill="black"/>
<defs>
<linearGradient id="paint0_linear_318_36" x1="-2.49446" y1="-0.261013" x2="151.556" y2="10.2242" gradientUnits="userSpaceOnUse">
<stop stop-color="#FED74A"/>
<stop offset="1" stop-color="#FF9D4A"/>
</linearGradient>
</defs>
</svg>
