<svg width="132" height="132" viewBox="0 0 132 132" fill="none" xmlns="http://www.w3.org/2000/svg">
<circle cx="66" cy="66" r="66" fill="url(#paint0_linear_319_55)"/>
<path d="M92.7578 86.7484L82.4886 76.4792C84.0706 74.1274 85.1771 71.4938 85.7518 68.6851H89.3937C90.0097 68.6851 90.5093 68.1857 90.5093 67.5695V60.9395C90.5093 60.3234 90.0097 59.8239 89.3937 59.8239H85.7513C85.1914 57.1065 84.1114 54.4975 82.5892 52.1859L85.1636 49.6115C85.3727 49.4024 85.4903 49.1185 85.4903 48.8227C85.4903 48.5268 85.3727 48.2431 85.1636 48.0338L80.4754 43.3457C80.0397 42.91 79.3335 42.91 78.8976 43.3457L76.3233 45.9202C74.0114 44.3978 71.4026 43.3178 68.6852 42.7582V39.1156C68.6852 38.4994 68.1857 38 67.5696 38H60.9395C60.3235 38 59.8239 38.4994 59.8239 39.1156V42.758C57.1066 43.3177 54.4977 44.3977 52.1859 45.9199L49.6115 43.3456C49.1757 42.9099 48.4696 42.9099 48.0337 43.3456L43.3457 48.0337C43.1366 48.2428 43.019 48.5267 43.019 48.8226C43.019 49.1184 43.1366 49.4022 43.3457 49.6114L45.9201 52.1858C44.3977 54.4977 43.3178 57.1065 42.7581 59.8238H39.1156C38.4995 59.8238 38 60.3233 38 60.9394V67.5694C38 68.1856 38.4995 68.685 39.1156 68.685H42.758C43.3177 71.4023 44.3976 74.0112 45.9199 76.3231L43.3456 78.8974C42.9099 79.3331 42.9099 80.0395 43.3456 80.4752L48.0338 85.1632C48.4696 85.5989 49.1757 85.5989 49.6116 85.1632L52.186 82.5888C54.4978 84.1111 57.1066 85.1911 59.824 85.7508V89.3933C59.824 90.0094 60.3236 90.5088 60.9396 90.5088H67.5698C68.1858 90.5088 68.6853 90.0094 68.6853 89.3933V85.7515C71.4941 85.1768 74.1276 84.0703 76.4794 82.4882L86.7486 92.7575C87.577 93.5858 88.6651 94 89.7533 94C90.8416 94 91.9297 93.5858 92.7581 92.7575C93.5606 91.9549 94.0026 90.8878 94.0026 89.7527C94.0023 88.618 93.5603 87.551 92.7578 86.7484ZM67.3931 83.72C66.852 83.8068 66.4541 84.2735 66.4541 84.8215V88.278H62.0552V84.8215C62.0552 84.2735 61.6573 83.8068 61.1161 83.72C58.0903 83.2348 55.1831 82.0312 52.7089 80.2393C52.2652 79.9179 51.6534 79.9664 51.2657 80.354L48.8228 82.797L45.7123 79.6866L48.1552 77.2437C48.5428 76.8561 48.5913 76.2444 48.2697 75.8005C46.4778 73.3262 45.2743 70.419 44.7893 67.3932C44.7027 66.8521 44.2357 66.4542 43.6877 66.4542H40.2311V62.0554H43.6877C44.2357 62.0554 44.7026 61.6575 44.7893 61.1164C45.2745 58.0905 46.478 55.1834 48.2697 52.7091C48.5912 52.2653 48.5427 51.6535 48.1552 51.2659L45.7122 48.8227L48.8228 45.7122L51.2657 48.1551C51.6532 48.5428 52.2648 48.5912 52.709 48.2697C55.1832 46.4778 58.0903 45.2742 61.1161 44.7892C61.6573 44.7023 62.0552 44.2356 62.0552 43.6876V40.2311H66.4541V43.6876C66.4541 44.2356 66.852 44.7023 67.3931 44.7892C70.419 45.2743 73.3262 46.4779 75.8002 48.2699C76.2442 48.5912 76.8559 48.5428 77.2436 48.1552L79.6865 45.7123L82.7969 48.8228L80.354 51.2657C79.9665 51.6533 79.9179 52.2649 80.2395 52.7089C82.0314 55.183 83.235 58.0902 83.7202 61.1163C83.807 61.6574 84.2738 62.0553 84.8217 62.0553H88.2782V66.4541H84.8217C84.2738 66.4541 83.8069 66.852 83.7202 67.3931C83.1196 71.1389 81.4817 74.5711 78.9633 77.3854L76.4037 74.8258C78.8519 72.0133 80.3364 68.3408 80.3364 64.3279C80.3364 55.5008 73.1552 48.3194 64.3281 48.3194C55.5009 48.3194 48.3196 55.5008 48.3196 64.3279C48.3196 73.1549 55.5008 80.3361 64.328 80.3361C68.3409 80.3361 72.0133 78.8516 74.8259 76.4035L77.3855 78.9631C74.571 81.4815 71.1387 83.1194 67.3931 83.72ZM64.3279 78.105C56.7311 78.105 50.5507 71.9246 50.5507 64.3279C50.5507 56.7311 56.7311 50.5506 64.3279 50.5506C71.9246 50.5506 78.105 56.7311 78.105 64.3279C78.105 71.9246 71.9247 78.105 64.3279 78.105ZM91.18 91.1801C90.3932 91.9669 89.1129 91.9669 88.326 91.1801L78.4825 81.3366L81.3366 78.4826L91.18 88.326C91.967 89.1129 91.967 90.3931 91.18 91.1801Z" fill="black"/>
<path d="M61.7811 54.0143C61.5713 53.4351 60.9316 53.1354 60.3522 53.3454C57.4572 54.394 55.0484 56.5979 53.7438 59.3919C53.483 59.9502 53.7243 60.6141 54.2824 60.8747C54.4351 60.9461 54.5957 60.9799 54.7538 60.9799C55.1738 60.9799 55.576 60.7415 55.7653 60.336C56.8213 58.075 58.7702 56.2916 61.1121 55.4433C61.6914 55.2334 61.991 54.5937 61.7811 54.0143Z" fill="black"/>
<path d="M53.8876 62.3703C53.2754 62.321 52.736 62.78 52.6874 63.3942C52.6629 63.7033 52.6504 64.0175 52.6504 64.3281C52.6504 64.9442 53.1499 65.4437 53.766 65.4437C54.382 65.4437 54.8815 64.9442 54.8815 64.3281C54.8815 64.0762 54.8917 63.8214 54.9115 63.5707C54.9603 62.9565 54.5019 62.4191 53.8876 62.3703Z" fill="black"/>
<defs>
<linearGradient id="paint0_linear_319_55" x1="-2.49446" y1="-0.261013" x2="151.556" y2="10.2242" gradientUnits="userSpaceOnUse">
<stop stop-color="#FED74A"/>
<stop offset="1" stop-color="#FF9D4A"/>
</linearGradient>
</defs>
</svg>
